<svg width="56" height="56" viewBox="0 0 56 56" fill="none" xmlns="http://www.w3.org/2000/svg">
<rect width="56" height="56" fill="black"/>
<rect x="1.75" y="1.75" width="52.5" height="52.5" fill="white"/>
<rect x="1.75" y="1.75" width="10.5" height="10.5" fill="#99C661"/>
<rect x="12.25" y="1.75" width="10.5" height="10.5" fill="#9ECCD6"/>
<rect x="22.75" y="1.75" width="10.5" height="10.5" fill="#E6E681"/>
<rect x="33.25" y="1.75" width="10.5" height="10.5" fill="#EA9959"/>
<rect x="43.75" y="1.75" width="10.5" height="10.5" fill="#E56D6E"/>
<path d="M9.04172 45.5025C9.04172 44.9872 8.9048 44.6197 8.63097 44.4001C8.36163 44.1806 7.98231 44.0708 7.493 44.0708H5.56047V46.9881H7.493C7.98231 46.9881 8.36163 46.8693 8.63097 46.6318C8.9048 46.3943 9.04172 46.0179 9.04172 45.5025ZM11.0955 45.4891C11.0955 46.6587 10.7992 47.4855 10.2066 47.9694C9.61407 48.4534 8.76789 48.6954 7.66807 48.6954H5.56047V52.258H3.5V42.35H7.82294C8.81951 42.35 9.61407 42.6054 10.2066 43.1163C10.7992 43.6271 11.0955 44.4181 11.0955 45.4891Z" fill="black"/>
<path d="M16.5429 48.6954C16.4217 48.7716 16.2983 48.8343 16.1726 48.8836C16.0514 48.9284 15.883 48.971 15.6675 49.0113L15.2366 49.092C14.8326 49.1637 14.543 49.2511 14.368 49.3541C14.0717 49.5289 13.9235 49.8 13.9235 50.1675C13.9235 50.4946 14.0133 50.7321 14.1929 50.88C14.3769 51.0234 14.5991 51.0951 14.8595 51.0951C15.2725 51.0951 15.6518 50.9741 15.9975 50.7321C16.3476 50.4901 16.5294 50.0487 16.5429 49.4079V48.6954ZM15.378 47.8014C15.7326 47.7566 15.9863 47.7006 16.1389 47.6334C16.4127 47.5168 16.5496 47.3354 16.5496 47.0889C16.5496 46.7886 16.4441 46.5825 16.2332 46.4705C16.0267 46.354 15.7214 46.2957 15.3174 46.2957C14.864 46.2957 14.543 46.4077 14.3545 46.6318C14.2198 46.7976 14.13 47.0217 14.0852 47.304H12.2334C12.2738 46.6632 12.4534 46.1366 12.7721 45.7243C13.2794 45.079 14.1502 44.7564 15.3847 44.7564C16.1883 44.7564 16.902 44.9155 17.526 45.2337C18.15 45.5518 18.462 46.1523 18.462 47.0351V50.396C18.462 50.6291 18.4665 50.9114 18.4754 51.243C18.4889 51.4939 18.5271 51.6642 18.5899 51.7539C18.6528 51.8435 18.747 51.9174 18.8727 51.9757V52.258H16.7853C16.727 52.1101 16.6866 51.9712 16.6641 51.8412C16.6417 51.7113 16.6237 51.5634 16.6102 51.3976C16.3454 51.6844 16.0401 51.9286 15.6945 52.1303C15.2815 52.3678 14.8146 52.4865 14.2939 52.4865C13.6295 52.4865 13.0796 52.2983 12.6442 51.9219C12.2132 51.541 11.9978 51.0032 11.9978 50.3087C11.9978 49.4079 12.3457 48.7559 13.0415 48.3526C13.423 48.133 13.9841 47.9762 14.7248 47.8821L15.378 47.8014Z" fill="black"/>
<path d="M22.1318 52.258H20.2127V42.35H22.1318V52.258Z" fill="black"/>
<path d="M26.9058 46.3159C26.4614 46.3159 26.1158 46.4548 25.8689 46.7326C25.6265 47.0105 25.4738 47.3869 25.411 47.8619H28.394C28.3625 47.3555 28.2077 46.9724 27.9293 46.7125C27.6555 46.4481 27.3144 46.3159 26.9058 46.3159ZM26.9058 44.7362C27.5164 44.7362 28.0663 44.8505 28.5556 45.079C29.0449 45.3076 29.4489 45.6683 29.7676 46.1613C30.0549 46.5959 30.2412 47.1001 30.3265 47.6737C30.3759 48.0098 30.3961 48.4938 30.3871 49.1256H25.3639C25.3908 49.8605 25.622 50.3759 26.0574 50.6716C26.3223 50.8554 26.641 50.9472 27.0136 50.9472C27.4086 50.9472 27.7296 50.8352 27.9765 50.6111C28.1112 50.4901 28.2301 50.3221 28.3334 50.107H30.2928C30.2434 50.5417 30.0168 50.9831 29.6127 51.4312C28.9843 52.1437 28.1044 52.5 26.9732 52.5C26.0395 52.5 25.2157 52.1997 24.502 51.5992C23.7882 50.9988 23.4313 50.0219 23.4313 48.6685C23.4313 47.4003 23.7523 46.4279 24.3942 45.7512C25.0407 45.0746 25.8779 44.7362 26.9058 44.7362Z" fill="black"/>
<path d="M30.9325 46.3629V44.9984H31.956V42.9549H33.8549V44.9984H35.0467V46.3629H33.8549V50.2347C33.8549 50.535 33.893 50.7232 33.9694 50.7993C34.0457 50.871 34.2791 50.9069 34.6696 50.9069C34.728 50.9069 34.7886 50.9069 34.8514 50.9069C34.9188 50.9024 34.9839 50.8979 35.0467 50.8935V52.3252L34.1377 52.3588C33.2309 52.3902 32.6114 52.2333 32.2792 51.8883C32.0638 51.6687 31.956 51.3304 31.956 50.8733V46.3629H30.9325Z" fill="black"/>
<path d="M35.5248 46.3629V44.9984H36.5483V42.9549H38.4472V44.9984H39.639V46.3629H38.4472V50.2347C38.4472 50.535 38.4853 50.7232 38.5616 50.7993C38.638 50.871 38.8714 50.9069 39.2619 50.9069C39.3203 50.9069 39.3809 50.9069 39.4437 50.9069C39.5111 50.9024 39.5762 50.8979 39.639 50.8935V52.3252L38.73 52.3588C37.8232 52.3902 37.2037 52.2333 36.8715 51.8883C36.656 51.6687 36.5483 51.3304 36.5483 50.8733V46.3629H35.5248Z" fill="black"/>
<path d="M43.7667 46.3159C43.3223 46.3159 42.9766 46.4548 42.7297 46.7326C42.4873 47.0105 42.3347 47.3869 42.2718 47.8619H45.2548C45.2234 47.3555 45.0685 46.9724 44.7902 46.7125C44.5163 46.4481 44.1752 46.3159 43.7667 46.3159ZM43.7667 44.7362C44.3772 44.7362 44.9271 44.8505 45.4164 45.079C45.9057 45.3076 46.3097 45.6683 46.6284 46.1613C46.9157 46.5959 47.102 47.1001 47.1873 47.6737C47.2367 48.0098 47.2569 48.4938 47.2479 49.1256H42.2247C42.2516 49.8605 42.4828 50.3759 42.9183 50.6716C43.1831 50.8554 43.5018 50.9472 43.8744 50.9472C44.2695 50.9472 44.5904 50.8352 44.8373 50.6111C44.972 50.4901 45.0909 50.3221 45.1942 50.107H47.1537C47.1043 50.5417 46.8776 50.9831 46.4736 51.4312C45.8451 52.1437 44.9653 52.5 43.834 52.5C42.9003 52.5 42.0766 52.1997 41.3628 51.5992C40.649 50.9988 40.2922 50.0219 40.2922 48.6685C40.2922 47.4003 40.6131 46.4279 41.2551 45.7512C41.9015 45.0746 42.7387 44.7362 43.7667 44.7362Z" fill="black"/>
</svg>